<svg xmlns="http://www.w3.org/2000/svg" viewBox="0 0 1366 768"><defs><style>.cls-1{fill:#f4f4c9;stroke:#b4bebf;}.cls-1,.cls-10,.cls-11,.cls-12,.cls-15,.cls-16,.cls-5,.cls-6{stroke-miterlimit:10;}.cls-2{font-size:72px;}.cls-10,.cls-13,.cls-2,.cls-7{fill:#3d1506;}.cls-13,.cls-2,.cls-7{font-family:Junegull-Regular, Junegull;}.cls-3{letter-spacing:-0.04em;}.cls-4{letter-spacing:-0.08em;}.cls-11,.cls-16,.cls-5{fill:none;}.cls-10,.cls-11,.cls-12,.cls-13,.cls-15,.cls-16,.cls-5,.cls-6,.cls-7{stroke:#3d1506;}.cls-5{stroke-width:5px;}.cls-12,.cls-6{fill:#fff;}.cls-7{font-size:36px;}.cls-8{letter-spacing:-0.08em;}.cls-9{letter-spacing:-0.03em;}.cls-10,.cls-11,.cls-12{stroke-width:3px;}.cls-13{font-size:48px;}.cls-14{letter-spacing:-0.04em;}.cls-15{fill:#fcfcfc;}.cls-16{stroke-width:6px;}</style></defs><g id="INSTRUCTION_BUBBLE" data-name="INSTRUCTION BUBBLE"><rect class="cls-1" x="39.13" y="31" width="1298" height="384.5" rx="21.5"/><text class="cls-2" transform="translate(360.37 137.34)">EXP<tspan class="cls-3" x="128.45" y="0">L</tspan><tspan x="157.25" y="0">ORE THE </tspan><tspan class="cls-4" x="462.67" y="0">P</tspan><tspan x="499.39" y="0">ARK</tspan></text></g><g id="ESCAPE_MENU" data-name="ESCAPE MENU"><rect class="cls-5" x="516.2" y="225.24" width="328.5" height="65" rx="15"/><rect class="cls-6" x="524.58" y="231.92" width="311.75" height="51.63" rx="15"/><text class="cls-7" transform="translate(627.95 268.86)">S<tspan class="cls-8" x="20.92" y="0">P</tspan><tspan class="cls-9" x="39.28" y="0">A</tspan><tspan x="62.78" y="0">CE</tspan></text><line class="cls-10" x1="1049.44" y1="244.74" x2="1042.94" y2="251.24"/><path class="cls-11" d="M1265.94,244.74l8,6.5c0-45.29-51.71-82-115.5-82s-115.5,36.71-115.5,82l-7.5-6.5"/><line class="cls-10" x1="1281.94" y1="244.74" x2="1273.94" y2="251.24"/><polygon class="cls-12" points="1134.62 209.74 1134.62 290.24 1154.1 264.74 1182.75 271.62 1134.62 209.74"/><text class="cls-13" transform="translate(136 341.99)">M<tspan class="cls-14" x="36.38" y="0">O</tspan><tspan x="71.81" y="0">VE</tspan></text><text class="cls-13" transform="translate(620.53 341.57)">JUMP</text><text class="cls-13" transform="translate(1097.99 341.74)">VIEW</text><rect class="cls-5" x="132.01" y="156.65" width="65" height="65" rx="15"/><rect class="cls-6" x="139.77" y="163.33" width="49.49" height="51.63" rx="15"/><text class="cls-7" transform="translate(146.84 200.27)">W</text><rect class="cls-5" x="93.99" y="227.98" width="65" height="65" rx="15"/><rect class="cls-15" x="101.75" y="234.66" width="49.49" height="51.63" rx="15"/><text class="cls-7" transform="translate(114.82 271.6)">a</text><rect class="cls-5" x="167.99" y="227.98" width="65" height="65" rx="15"/><rect class="cls-6" x="175.75" y="234.66" width="49.49" height="51.63" rx="15"/><text class="cls-7" transform="translate(189.82 271.6)">s</text><rect class="cls-16" x="244.99" y="227.98" width="65" height="65" rx="15"/><rect class="cls-6" x="252.75" y="234.66" width="49.49" height="51.63" rx="15"/><text class="cls-7" transform="translate(265.82 271.6)">d</text></g></svg>