<svg xmlns="http://www.w3.org/2000/svg" viewBox="0 0 1366 768"><defs><style>.cls-1{fill:#f4f4c9;stroke:#b4bebf;}.cls-1,.cls-10,.cls-13,.cls-14,.cls-15,.cls-19,.cls-20,.cls-3,.cls-4,.cls-8,.cls-9{stroke-miterlimit:10;}.cls-16,.cls-2{font-size:72px;}.cls-11,.cls-2,.cls-21,.cls-22,.cls-23,.cls-5,.cls-8{fill:#3d1506;}.cls-10,.cls-11,.cls-13,.cls-14,.cls-19,.cls-2,.cls-3,.cls-4,.cls-5,.cls-8,.cls-9{stroke:#3d1506;}.cls-11,.cls-16,.cls-2,.cls-21,.cls-22,.cls-23,.cls-5{font-family:Junegull-Regular, Junegull;}.cls-14,.cls-19,.cls-3,.cls-9{fill:none;}.cls-3{stroke-width:5px;}.cls-10,.cls-15,.cls-20,.cls-4{fill:#fff;}.cls-5{font-size:36px;}.cls-6{letter-spacing:-0.08em;}.cls-7{letter-spacing:-0.03em;}.cls-10,.cls-8,.cls-9{stroke-width:3px;}.cls-11,.cls-22{font-size:48px;}.cls-12{letter-spacing:-0.04em;}.cls-13{fill:#fcfcfc;}.cls-14{stroke-width:6px;}.cls-15{stroke:#c62f00;}.cls-15,.cls-19{stroke-width:10px;}.cls-16{fill:#c62f00;}.cls-17{letter-spacing:-0.1em;}.cls-18{letter-spacing:-0.08em;}.cls-20{stroke:#000;}.cls-21{font-size:49.94px;}.cls-23{font-size:51.5px;}</style></defs><g id="ESCAPE_MENU" data-name="ESCAPE MENU"><rect class="cls-1" x="29.5" y="38.5" width="1298" height="654" rx="21.5"/><text class="cls-2" transform="translate(435.05 141.25)">INSTRUCTIONS</text><rect class="cls-3" x="511.2" y="170.43" width="328.5" height="65" rx="15"/><rect class="cls-4" x="519.58" y="177.11" width="311.75" height="51.63" rx="15"/><text class="cls-5" transform="translate(622.95 214.05)">S<tspan class="cls-6" x="20.92" y="0">P</tspan><tspan class="cls-7" x="39.28" y="0">A</tspan><tspan x="62.78" y="0">CE</tspan></text><line class="cls-8" x1="1044.44" y1="189.93" x2="1037.94" y2="196.43"/><path class="cls-9" d="M1260.94,189.93l8,6.5c0-45.29-51.71-82-115.5-82s-115.5,36.71-115.5,82l-7.5-6.5"/><line class="cls-8" x1="1276.94" y1="189.93" x2="1268.94" y2="196.43"/><polygon class="cls-10" points="1129.63 154.93 1129.63 235.43 1149.11 209.93 1177.75 216.81 1129.63 154.93"/><text class="cls-11" transform="translate(131 287.17)">M<tspan class="cls-12" x="36.38" y="0">O</tspan><tspan x="71.81" y="0">VE</tspan></text><text class="cls-11" transform="translate(615.53 286.76)">JUMP</text><text class="cls-11" transform="translate(1092.99 286.93)">VIEW</text><rect class="cls-3" x="127.02" y="101.83" width="65" height="65" rx="15"/><rect class="cls-4" x="134.77" y="108.52" width="49.49" height="51.63" rx="15"/><text class="cls-5" transform="translate(141.84 145.46)">W</text><rect class="cls-3" x="89" y="173.17" width="65" height="65" rx="15"/><rect class="cls-13" x="96.75" y="179.85" width="49.49" height="51.63" rx="15"/><text class="cls-5" transform="translate(109.82 216.79)">a</text><rect class="cls-3" x="163" y="173.17" width="65" height="65" rx="15"/><rect class="cls-4" x="170.75" y="179.85" width="49.49" height="51.63" rx="15"/><text class="cls-5" transform="translate(184.82 216.79)">s</text><rect class="cls-14" x="240" y="173.17" width="65" height="65" rx="15"/><rect class="cls-4" x="247.75" y="179.85" width="49.49" height="51.63" rx="15"/><text class="cls-5" transform="translate(260.82 216.79)">d</text><rect class="cls-15" x="353.62" y="561.5" width="636.87" height="81" rx="15"/><text class="cls-16" transform="translate(403.41 627.25)">LE<tspan class="cls-17" x="75.02" y="0">A</tspan><tspan x="117.21" y="0">VE THE </tspan><tspan class="cls-18" x="371.23" y="0">P</tspan><tspan x="407.95" y="0">ARK</tspan></text></g><g id="fonts"><rect class="cls-19" x="152.6" y="334.61" width="90.17" height="90.17" rx="15"/><rect class="cls-4" x="163.36" y="343.88" width="68.66" height="71.63" rx="15"/><rect class="cls-19" x="630.8" y="338.05" width="90.17" height="90.17" rx="15"/><rect class="cls-20" x="641.56" y="347.32" width="68.66" height="71.63" rx="15"/><text class="cls-21" transform="translate(661.31 398.57)">G</text><rect class="cls-19" x="1110.49" y="338.05" width="90.17" height="90.17" rx="15"/><rect class="cls-4" x="1121.24" y="347.32" width="68.66" height="71.63" rx="15"/><text class="cls-21" transform="translate(1137.92 398.57)">Q</text><text class="cls-22" transform="translate(121.23 495.97)">PICK UP</text><text class="cls-22" transform="translate(632.09 491.55)">USE</text><text class="cls-22" transform="translate(1096.08 491.72)">DROP</text><text class="cls-23" transform="translate(182.88 397.72)">F</text></g></svg>